<svg width="101" height="31" viewBox="0 0 101 31" fill="none" xmlns="http://www.w3.org/2000/svg">
<path d="M0 30.1H30V0.0999998H0V30.1ZM44.6086 28V9.58H38.3986V7H53.9686V9.58H47.7886V28H44.6086ZM59.4914 28.36C58.2314 28.36 57.1914 28.15 56.3714 27.73C55.5514 27.31 54.9414 26.76 54.5414 26.08C54.1414 25.38 53.9414 24.62 53.9414 23.8C53.9414 22.36 54.5014 21.22 55.6214 20.38C56.7414 19.54 58.3414 19.12 60.4214 19.12H64.3214V18.85C64.3214 17.69 64.0014 16.82 63.3614 16.24C62.7414 15.66 61.9314 15.37 60.9314 15.37C60.0514 15.37 59.2814 15.59 58.6214 16.03C57.9814 16.45 57.5914 17.08 57.4514 17.92H54.2714C54.3714 16.84 54.7314 15.92 55.3514 15.16C55.9914 14.38 56.7914 13.79 57.7514 13.39C58.7314 12.97 59.8014 12.76 60.9614 12.76C63.0414 12.76 64.6514 13.31 65.7914 14.41C66.9314 15.49 67.5014 16.97 67.5014 18.85V28H64.7414L64.4714 25.45C64.0514 26.27 63.4414 26.96 62.6414 27.52C61.8414 28.08 60.7914 28.36 59.4914 28.36ZM60.1214 25.78C60.9814 25.78 61.7014 25.58 62.2814 25.18C62.8814 24.76 63.3414 24.21 63.6614 23.53C64.0014 22.85 64.2114 22.1 64.2914 21.28H60.7514C59.4914 21.28 58.5914 21.5 58.0514 21.94C57.5314 22.38 57.2714 22.93 57.2714 23.59C57.2714 24.27 57.5214 24.81 58.0214 25.21C58.5414 25.59 59.2414 25.78 60.1214 25.78ZM77.1492 28.36C75.2692 28.36 73.7192 27.9 72.4992 26.98C71.2792 26.06 70.5792 24.84 70.3992 23.32H73.6092C73.7692 24 74.1492 24.59 74.7492 25.09C75.3492 25.57 76.1392 25.81 77.1192 25.81C78.0792 25.81 78.7792 25.61 79.2192 25.21C79.6592 24.81 79.8792 24.35 79.8792 23.83C79.8792 23.07 79.5692 22.56 78.9492 22.3C78.3492 22.02 77.5092 21.77 76.4292 21.55C75.5892 21.37 74.7492 21.13 73.9092 20.83C73.0892 20.53 72.3992 20.11 71.8392 19.57C71.2992 19.01 71.0292 18.26 71.0292 17.32C71.0292 16.02 71.5292 14.94 72.5292 14.08C73.5292 13.2 74.9292 12.76 76.7292 12.76C78.3892 12.76 79.7292 13.16 80.7492 13.96C81.7892 14.76 82.3992 15.89 82.5792 17.35H79.5192C79.4192 16.71 79.1192 16.21 78.6192 15.85C78.1392 15.49 77.4892 15.31 76.6692 15.31C75.8692 15.31 75.2492 15.48 74.8092 15.82C74.3692 16.14 74.1492 16.56 74.1492 17.08C74.1492 17.6 74.4492 18.01 75.0492 18.31C75.6692 18.61 76.4792 18.88 77.4792 19.12C78.4792 19.34 79.3992 19.6 80.2392 19.9C81.0992 20.18 81.7892 20.6 82.3092 21.16C82.8292 21.72 83.0892 22.54 83.0892 23.62C83.1092 24.98 82.5792 26.11 81.4992 27.01C80.4392 27.91 78.9892 28.36 77.1492 28.36ZM86.5608 28V6.4H89.7408V19.27L95.4408 13.12H99.2508L92.9208 19.87L100.181 28H96.1608L89.7408 20.38V28H86.5608Z" fill="black"/>
</svg>
